<svg width="292" height="299" fill="none" xmlns="http://www.w3.org/2000/svg"><g filter="url(#filter0_d)"><path d="M144.488 221.857c44.113 0 79.873-35.761 79.873-79.874 0-44.113-35.76-79.874-79.873-79.874-44.113 0-79.874 35.761-79.874 79.874 0 44.113 35.761 79.874 79.874 79.874zM145.98 55.465c0 .581-.498 1.163-1.162 1.163-.581 0-1.162-.498-1.162-1.163v-8.303c0-.58.498-1.162 1.162-1.162.581 0 1.162.498 1.162 1.162v8.303zM116.258 60.197a1.048 1.048 0 0 1-.664 1.411 1.048 1.048 0 0 1-1.412-.664l-2.823-7.805a1.048 1.048 0 0 1 .664-1.411 1.048 1.048 0 0 1 1.412.664l2.823 7.805zM102.558 66.34c.332.5.166 1.246-.415 1.495-.498.333-1.246.166-1.578-.415l-4.151-7.14c-.332-.498-.166-1.246.415-1.495.498-.332 1.245-.166 1.494.415l4.235 7.14zM90.02 74.727c.415.498.332 1.163-.166 1.578-.499.415-1.163.332-1.578-.166l-5.314-6.31c-.415-.499-.332-1.163.166-1.578.498-.415 1.163-.332 1.578.166l5.314 6.31zM79.143 85.272c.498.415.498 1.08.166 1.577-.415.498-1.079.498-1.577.166l-6.31-5.314c-.499-.415-.499-1.079-.166-1.577.415-.498 1.079-.498 1.577-.166l6.31 5.314zM70.342 97.477c.498.332.747.996.415 1.494s-.996.748-1.577.415l-7.14-4.151c-.499-.332-.748-.996-.416-1.578.332-.498.996-.747 1.578-.415l7.14 4.235zM63.7 111.009c.582.249.914.83.665 1.411-.25.582-.83.914-1.412.665l-7.722-2.823c-.58-.25-.913-.831-.664-1.412.25-.581.83-.913 1.412-.664l7.721 2.823zM59.548 125.542c.581.083.996.664.913 1.329-.083.581-.664.996-1.328.913l-8.137-1.412c-.581-.083-.996-.664-.913-1.328.083-.581.664-.996 1.328-.913l8.137 1.411zM59.3 139.158c.58 0 1.162.415 1.162 1.079 0 .581-.416 1.162-1.08 1.162l-8.22.332c-.58 0-1.162-.415-1.162-1.079 0-.581.498-1.162 1.08-1.162l8.22-.332zM158.767 56.543c-.083.581.332 1.162.914 1.328.581.083 1.162-.332 1.328-.913l1.412-8.137c.083-.581-.333-1.162-.914-1.328-.581-.083-1.162.332-1.328.913l-1.412 8.137zM173.463 60.199a1.048 1.048 0 0 0 .665 1.411 1.048 1.048 0 0 0 1.411-.664l2.823-7.805a1.048 1.048 0 0 0-.664-1.411 1.049 1.049 0 0 0-1.412.664l-2.823 7.805zM187.247 66.343c-.333.498-.167 1.245.415 1.495.498.332 1.245.166 1.577-.416l4.152-7.14c.332-.498.166-1.246-.415-1.495-.499-.332-1.246-.166-1.495.416l-4.234 7.14zM199.7 74.73c-.415.498-.332 1.162.166 1.577.498.415 1.163.332 1.578-.166l5.314-6.31c.415-.499.332-1.163-.166-1.578-.499-.415-1.163-.332-1.578.166l-5.314 6.31zM210.578 85.272c-.498.415-.498 1.08-.166 1.577.415.498 1.079.498 1.577.166l6.31-5.314c.499-.415.499-1.079.166-1.577-.415-.498-1.079-.498-1.577-.166l-6.31 5.314zM219.378 97.474c-.498.333-.747.997-.415 1.495.332.498.996.747 1.577.415l7.141-4.151c.498-.333.747-.997.415-1.578-.332-.498-.996-.747-1.577-.415l-7.141 4.234zM226.02 111.01c-.581.249-.913.83-.664 1.411.249.581.83.914 1.411.665l7.722-2.823c.581-.25.913-.831.664-1.412s-.83-.913-1.411-.664l-7.722 2.823zM230.173 125.542c-.581.083-.997.664-.914 1.328.083.582.665.997 1.329.914l8.137-1.412c.581-.083.996-.664.913-1.328-.083-.581-.664-.997-1.328-.914l-8.137 1.412zM231.749 140.649c-.581 0-1.162.499-1.162 1.163 0 .581.498 1.162 1.162 1.162h8.303c.581 0 1.162-.498 1.162-1.162 0-.581-.498-1.163-1.162-1.163h-8.303zM127.971 47.197c-.15-.585-.844-.95-1.388-.728-.585.15-.949.844-.728 1.387l2.415 7.918c.15.585.843.95 1.387.728.585-.15.95-.844.728-1.387l-2.414-7.918z" fill="#EEC050"/><path d="M67.762 202.33c.139 6.807 3.264 13.128 8.544 17.157 2.292 1.736 5.07 2.917 7.849 3.542a14.03 14.03 0 0 0 2.084 4.515c2.986 4.446 7.78 7.433 12.85 8.544 4.793 1.042 9.864.834 14.448-1.042.625-.278 1.25-.556 1.876-.903a26.27 26.27 0 0 0 2.083 2.779c4.168 4.723 10.281 7.363 16.393 7.779 5.974.417 12.226-1.528 17.157-5.001 2.362-1.667 4.585-3.612 6.53-5.835 5.001 5.488 12.572 7.016 20.005 6.113 5.001-.625 8.613-3.265 11.6-7.363.069-.069.139-.208.208-.347.695.139 1.39.278 2.154.278.555.069 1.042.208 1.597.208 2.501.625 5.141.625 7.711-.208 5.557-1.806 9.446-6.669 11.322-12.226 2.084-.139 4.168-.764 6.182-1.806 5.349-2.917 8.683-9.169 8.474-15.351a30.21 30.21 0 0 0-.416-3.612c-.903-8.057-7.78-14.795-15.699-15.49-1.25-8.127-7.78-15.212-15.004-18.199-3.889-1.597-8.404-2.084-12.642-1.458-.347-.487-.764-.973-1.111-1.459-3.681-4.237-8.544-7.155-13.753-8.822-5.905-2.987-12.365-4.515-18.894-4.584-11.392-.07-22.297 4.654-28.827 13.962-2.153-.695-4.376-1.112-6.321-1.39-5.696-.833-11.391.834-16.462 3.543-4.862 2.57-8.336 6.738-10.142 12.086-.208.625-.416 1.32-.555 1.945-10.42 1.389-19.45 11.392-19.241 22.645z" fill="#fff"/><path opacity="0.36" d="M162.577 156.346c-3.195-3.96-9.447-5.557-14.101-3.543-1.458.625-1.25 3.404.556 3.056 4.376-.694 7.224.209 10.697 2.918 1.598 1.25 4.307-.625 2.848-2.431zM114.857 228.793a3.67 3.67 0 0 0-1.112-.417c-.069-.347-.208-.764-.625-1.111-1.598-1.598-5.279-.139-7.155.069-8.335.834-17.226-3.473-18.824-12.711v-.278c-.07-.208-.208-.347-.347-.486l-.07-.07c-.069-.069-.208-.138-.277-.208-.626-.278-1.39-.139-1.459.764v.278a15.808 15.808 0 0 0 1.042 6.668c1.39 4.515 4.515 8.614 8.544 10.42.416.208.833.347 1.25.486.556.347 1.18.625 1.737.833 2.57 1.042 5.209 1.459 7.849.973 3.473-.07 6.807-1.112 9.585-3.543.487-.278.626-1.25-.138-1.667zm-9.308.973c.416-.07.764-.07 1.181-.139-.626.139-1.181.278-1.806.347-.348-.069-.765-.069-1.181-.139h-.07c.625 0 1.251 0 1.876-.069zM82.417 214.763a1.45 1.45 0 0 0-.555-.695c-.973-2.362-3.751-4.098-5.071-6.182-2.64-4.029-3.612-8.891-2.292-13.545l.416-1.25c.07-.139.07-.278.07-.417.208-.417.07-.834-.209-1.112-.138-.694-1.11-1.041-1.528-.277-.07.069-.07.139-.139.277-.07.07-.07.139-.139.209-3.89 5.974-3.89 15.212.278 21.116 1.667 2.987 4.237 5.488 7.433 5.14.139.07.278.07.486.139a1.035 1.035 0 0 0 1.25-.764c.07-.069.07-.208.14-.278.208-1.111.208-1.319-.14-2.361zM151.533 224.557c-1.32.347-2.153 1.736-2.917 2.778-1.181 1.459-2.362 2.848-3.821 4.098-2.431 2.084-5.765 4.099-9.308 5.141-2.848.625-5.835.694-8.544-.139-1.389-.625-2.709-1.459-3.889-2.362-.209-.139-.348-.208-.556-.139-.903-.347-2.084.625-1.459 1.528.07.139.139.348.278.486.347.348.695.695 1.042.973 4.307 4.029 11.044 4.723 16.532 3.404.139-.07.347-.07.486-.139.347-.07.695-.139.973-.209.069 0 .138-.069.277-.069 3.404-.834 6.877-2.709 9.447-5.279 1.042-1.042 2.015-2.154 2.709-3.404.903-1.111 1.598-2.292 1.667-3.473.278-1.945-1.042-3.682-2.917-3.195zM180.568 229.628c-6.252 2.709-13.337 2.5-19.519-.278-1.042-.486-1.945.625-1.459 1.667.209.417.486.833.834 1.181 0 .208.069.417.278.555 4.376 3.612 10.349 5.349 15.906 4.515a18.19 18.19 0 0 0 6.947-2.5c1.667-1.042 4.445-2.918 4.792-5.071.834-5.696-6.39-.694-7.779-.069zM208.63 219.902c-.278-.764-1.598-1.111-1.945-.139-.764 1.042-1.459 2.015-2.223 2.987-1.458 1.112-3.334 2.015-4.306 2.431a18.667 18.667 0 0 1-3.126 1.112c-.695.069-1.459.139-2.223.208-.486.07-.972.209-1.389.486-.556.07-.903.556-.973 1.042-.277.626-.069 1.39.834 2.015 2.709 1.945 6.599.139 9.03-1.251 2.987-1.736 6.321-3.959 6.668-7.849.07-.486-.069-.833-.347-1.042zM224.051 198.856c-.208-1.389-2.292-1.389-2.153.139v.486c-.417.625-.556 1.181-.764 2.084-.625 2.223-1.806 3.959-3.542 5.418-1.737 1.389-5.488 2.223-6.391 4.446a2.874 2.874 0 0 0-.208 1.111v.139c-.209 1.111.416 2.153 1.319 2.639.139.417.487.764 1.042.556.278-.069.487-.208.764-.278 1.112.556 2.501-.208 3.682-1.25a10.1 10.1 0 0 0 4.584-3.82c1.529-2.362 1.876-5.141 1.876-7.919 0-1.32 0-2.501-.209-3.751z" fill="#fff"/><path d="M196.173 185.987c-.252-1.384-.692-5.598-2.454-5.85-2.39-.44-3.711 2.894-5.535 4.152-1.699 1.132-3.271 0-4.655-1.069-1.258-.944-2.454-2.013-3.649-3.083-2.013-1.824-3.837-3.837-5.724-5.724 0-3.208-.378-6.417-.944-9.373-.629-3.271-1.761-6.479-3.145-9.436-.881-1.887-2.013-3.648-2.202-5.85-.063-.566 0-1.069.126-1.573 2.265-1.635 4.404-3.522 6.228-5.598 2.705-3.083 5.284-7.675 5.032-12.141-.251-4.969-7.171-1.447-9.247-.629-3.334 1.321-6.794 2.894-9.876 5.032-2.894.629-5.661 1.825-8.492 2.768-3.271 1.133-6.542 2.328-9.813 3.397-3.083 1.007-6.228 1.761-9.499 1.699-1.699 0-3.397-.315-5.095-.692-.818-.189-1.573-.504-2.391-.755-1.384-1.07-3.019-1.887-4.403-2.642-2.328-1.195-4.844-2.076-7.36-2.642-1.195-.252-4.215-1.321-4.655.88-.378 2.139.818 4.592 1.51 6.48 2.013 5.221 4.78 10.002 8.303 14.153a34.473 34.473 0 0 0 3.334 3.46c2.202 4.781.44 10.883.315 16.167-.063 1.447 0 2.893.188 4.403-1.132 3.397-3.522 6.228-5.661 9.058-.755 1.007-1.447 2.013-2.202 2.957-.755 1.069-1.698 3.082-3.145 2.894-1.069-.189-2.202-.692-3.208-1.07-1.258-.44-2.516-.817-3.775-1.258-.377-.126-.692.315-.629.692a33.156 33.156 0 0 0 4.718 12.204c1.07 1.635 2.265 3.271 3.963 4.214 1.636.944 3.523.441 5.159-.251 4.403-1.762 8.806-3.523 13.335-4.781 2.076-.566 4.152-1.069 6.228-1.447.378-.063.755-.126 1.195-.189 2.957-.503 5.976-.943 8.933-1.321 5.661-.817 11.386-1.383 17.047-1.824 5.536-.44 11.009-.629 16.544-.755 2.768-.063 5.536 0 8.367 0h.88c1.636.252 3.334.378 4.781-.251 1.699-.755 2.202-2.768 2.391-4.592.188-3.334-.252-6.731-.818-9.814z" fill="#56B8DE"/><path d="M153.334 136.042c-2.705-5.725-10.694-3.775-14.971-2.013-2.328.943-4.467 2.516-5.159 5.284-.251 1.069-.125 2.013.252 2.83 1.384 5.473 7.737 7.234 12.204 6.291 2.516-.503 4.969-2.139 6.479-4.466 1.321-2.139 2.39-5.347 1.195-7.926z" fill="#F0D0C1"/><path opacity="0.5" d="M153.334 136.042c-2.705-5.725-10.694-3.775-14.971-2.013-2.328.943-4.467 2.516-5.159 5.284-.251 1.069-.125 2.013.252 2.83 1.384 5.473 7.737 7.234 12.204 6.291 2.516-.503 4.969-2.139 6.479-4.466 1.321-2.139 2.39-5.347 1.195-7.926z" fill="#F0D0C1"/><path opacity="0.5" d="M153.334 136.042c-2.705-5.725-10.694-3.775-14.971-2.013-2.328.943-4.467 2.516-5.159 5.284-.251 1.069-.125 2.013.252 2.83 1.384 5.473 7.737 7.234 12.204 6.291 2.516-.503 4.969-2.139 6.479-4.466 1.321-2.139 2.39-5.347 1.195-7.926z" fill="#F0D0C1"/><g opacity="0.5" fill="#BDDFEC"><path opacity="0.5" d="M121.441 187.878c1.573 1.447 3.208 2.831 4.844 4.278.251.251.566-.126.377-.441-2.265-3.208-4.152-6.479-5.158-10.442a8.893 8.893 0 0 1-.252-1.258c0 .503.063.944.063 1.447-.629 1.761-1.573 3.397-2.642 4.906 1.007-.125 1.95.755 2.768 1.51zM110.998 140.699c-.567.315-1.133.692-1.699 1.07.189.503.378 1.006.566 1.446 1.258 3.523 2.957 6.857 4.907 9.939-1.384-4.34-1.132-9.058.314-13.587.126-.378-.377-.629-.566-.315.252-.692.189-1.384-.063-2.076 1.51.629 3.02 1.384 4.467 2.391 3.459 2.39 6.164 6.227 7.108 10.694 1.006 4.718-1.007 9.31-2.013 13.839-.881 3.837-.44 7.611 1.321 11.008 3.523 6.857 11.008 10.568 17.802 11.386 7.423.881 14.783-2.327 19.501-8.869 4.906-6.857 5.661-16.23 2.642-24.156-1.699-4.341-4.341-8.681-3.271-13.588.818-3.585 3.522-6.039 5.976-8.366-2.705 1.069-5.41 2.39-7.863 4.026-2.894.566-5.725 1.698-8.493 2.642-3.271 1.069-6.542 2.202-9.876 3.271-3.082 1.006-6.227 1.636-9.498 1.573-1.699-.063-3.397-.378-5.096-.818-.817-.189-1.572-.503-2.39-.755-1.321-1.132-2.957-1.95-4.403-2.705-2.328-1.258-4.781-2.139-7.298-2.768-.817-.188-2.579-.818-3.711-.377 1.132.314 2.328.629 3.46 1.006.189.315.44.629.629.944.881 1.635-1.699 2.705-2.453 3.145zM196.298 186.369c-.252-1.384-.692-5.598-2.454-5.913h-.188c2.705 4.655 3.459 11.512-1.007 15.223-4.529 3.837-9.184-1.51-13.776-2.076-5.284-.692-9.436 3.083-14.468 4.026-2.831.504-5.788.566-8.681.818-.818.063-1.699.126-2.517.252-1.006 0-2.075.063-3.019.125-2.642.189-5.221.692-7.8 1.133-2.642.44-5.284.818-7.989.943-2.516.063-4.97 0-7.486.315a12.98 12.98 0 0 0-5.724 2.139c-2.265 1.509-4.089 3.522-6.794 3.837-2.453.251-4.907-1.007-6.857-2.516-.44-.378-.88-.755-1.258-1.133a29.325 29.325 0 0 0 1.887 3.397c1.07 1.636 2.265 3.271 3.9 4.215 1.636.943 3.523.44 5.159-.189 4.466-1.761 8.806-3.523 13.399-4.718 2.075-.566 4.151-1.006 6.227-1.447.378-.062.755-.125 1.195-.188 2.957-.441 5.976-.881 8.933-1.258 5.661-.755 11.323-1.321 17.047-1.762 5.536-.377 11.009-.566 16.544-.629 2.768 0 5.536 0 8.304.063h.88c1.636.252 3.334.378 4.781-.251 1.699-.755 2.202-2.768 2.391-4.593.314-3.334-.063-6.73-.629-9.813zM170.444 130.509c-.566 3.019 1.447 6.542 2.013 9.247.377 1.761.315 3.586 0 5.347.503-.503 1.069-1.069 1.51-1.573 2.768-3.019 5.41-7.611 5.221-12.078-.126-4.655-6.228-1.887-8.744-.943z"/><path opacity="0.5" d="M169.626 186.18c.063-.126.126-.252.126-.315.943-2.201 2.705-3.585 4.844-4.088 2.704-.567 4.717 1.195 6.667 3.019 1.699 1.573 4.026 2.202 5.536.881-1.51.566-2.831-.441-4.089-1.447-1.258-1.007-2.453-2.076-3.648-3.145-1.95-1.825-3.712-3.901-5.662-5.788a45.616 45.616 0 0 0-.817-9.373 41.753 41.753 0 0 0-3.02-9.498 1.912 1.912 0 0 0-.251-.504c.251 1.07.691 2.076.943 3.146a43.792 43.792 0 0 1 1.132 5.724c.126.629.189 1.258.252 1.887.189 2.705.189 5.41-.063 8.115-.377 3.837-1.447 7.486-2.768 11.071-.063.504.566.755.818.315z"/></g><path d="M162.582 153.908c-2.768-7.863-6.542-17.173-14.846-18.62-7.486-1.321-14.657 4.466-17.299 12.015v.125c-3.837 6.543-6.982 13.714-6.102 21.766.378 3.837 1.887 7.423 4.341 10.127 2.642 2.957 6.479 4.215 10.065 4.907 7.611 1.447 15.915.189 21.576-6.039 5.913-6.542 5.095-16.229 2.265-24.281z" fill="#fff"/><path opacity="0.5" d="M162.582 153.908c-2.768-7.863-6.542-17.173-14.846-18.62-7.486-1.321-14.657 4.466-17.299 12.015v.125c-3.837 6.543-6.982 13.714-6.102 21.766.378 3.837 1.887 7.423 4.341 10.127 2.642 2.957 6.479 4.215 10.065 4.907 7.611 1.447 15.915.189 21.576-6.039 5.913-6.542 5.095-16.229 2.265-24.281zm-3.838 22.709c-2.767 3.648-7.234 5.472-11.322 6.416-8.178 1.824-17.74-2.076-20.256-11.701-1.195-4.717.063-9.876 1.95-14.153 2.076-4.592 5.158-8.807 10.002-9.184h.503c.126 0 .252-.063.252-.189.189.063.314.126.314.126.378.126.818.188 1.196.251.566.126 1.132.441 1.761.189a4.754 4.754 0 0 0 1.132-.566c4.467-1.007 9.247-3.46 13.147.629 1.51 1.573 2.328 3.963 3.02 6.102a36.32 36.32 0 0 1 1.698 8.177c.566 4.97-.503 10.065-3.397 13.903z" fill="#E4E2E2"/><path d="M185.291 130.004c-.944-.44-.378-1.069-.063-1.824.252-.629.126-1.321-.063-1.95-.44-1.384-1.573-1.636-2.705-1.51.44-1.51.881-3.9-.377-4.466-2.265-1.07-2.894 2.202-4.718 2.956-1.699.755-1.887-4.969-4.278-4.088-1.258.44-2.013 2.075-2.516 3.711-1.006 2.894-1.069 6.542 0 8.932 1.95 4.215 5.661 4.781 9.436 3.712 1.572-.44 4.152-1.258 5.284-2.579.692-.818 1.132-2.391 0-2.894z" fill="#F0D0C1"/><path d="M180.07 135.477c1.573-.44 4.152-1.258 5.284-2.579.629-.754 1.069-2.327-.063-2.893-.943-.441-.377-1.07-.063-1.825.252-.629.126-1.321-.063-1.95-.188-.566-.503-.943-.88-1.195.063.629.188 1.321.063 2.013-.189 1.132-1.196 1.636-1.384 2.705-.126.44.125.755.503.944.189.125.377.063.566 0 .44-.126.944-.126 1.321.125-1.384 2.957-6.039 3.083-8.807 2.391-2.013-.503-3.9-1.51-5.032-3.397-.881-1.51-1.069-3.082-1.321-4.718-.378 2.391-.252 4.907.566 6.731 1.824 4.152 5.536 4.718 9.31 3.648z" fill="#E0B6A3"/><path d="M182.083 120.256a2.468 2.468 0 0 0-.881-.189c.503.441.755.944.755 1.887.063 1.196-.503 2.454-.881 3.523-.125.315.315.629.567.44a5.355 5.355 0 0 0 1.069-1.258h-.252c.441-1.446.881-3.837-.377-4.403zM173.654 119.06c.629.692 1.132 1.258 1.384 2.39.188 1.007.44 1.887 1.258 2.516.126.126.314.063.44 0 .503-.314 1.132-.755 1.51-1.321-.252.252-.566.504-.881.629-1.572.629-1.824-4.151-3.711-4.214z" fill="#E0B6A3"/><path d="M98.36 147.177c1.51.692 4.215.189 5.788-.126 3.837-.817 6.982-3.019 7.171-7.737.063-2.642-1.384-5.976-3.334-8.115-1.007-1.258-2.391-2.327-3.649-2.201-2.516.251-.503 5.535-2.327 5.661-1.95.126-3.712-2.516-5.41-.503-.88 1.069.377 3.019 1.32 4.214-1.068.441-2.012 1.196-1.886 2.642.063.629.251 1.321.692 1.762.566.566 1.32.818.629 1.698-.818 1.07.189 2.328 1.006 2.705z" fill="#F0D0C1"/><g opacity="0.5" fill="#F0D0C1"><path opacity="0.5" d="M108.295 143.277c-1.384 1.573-3.396 2.202-5.284 2.58-1.572.314-4.403.943-5.913-.252.126.692.755 1.321 1.321 1.573 1.51.692 4.215.188 5.788-.126 3.837-.818 6.982-3.02 7.171-7.738.063-1.95-.692-4.277-1.887-6.164 1.384 3.397 1.384 7.234-1.196 10.127z"/><path opacity="0.5" d="M97.601 144.095c.692.252 1.51.252 2.265.063.314-.063.314-.692 0-.692-1.007-.126-1.887-.44-2.642-1.258-.377-.44-.63-1.069-.818-1.699-.063-.251-.063-.566-.126-.817-.188.377-.314.817-.251 1.321.063.629.251 1.321.692 1.761.503.503 1.07.755.88 1.321zM104.458 133.904c.378-.754 0-1.761-.314-2.453-.441-1.195 0-2.076 1.069-2.264-.314-.063-.629-.126-.881-.063-2.516.251-.503 5.535-2.327 5.661-.252 0-.44 0-.692-.063.881.755 2.579.315 3.145-.818zM97.6 138.622a5.755 5.755 0 0 0 2.328-.126c.252-.063.315-.503.063-.629-.755-.377-1.51-.566-2.201-1.195-.818-.818-.818-1.95-.504-2.957a1.634 1.634 0 0 0-.692.629c-.88 1.07.378 3.02 1.321 4.215-.125-.063-.251 0-.314.063z"/></g><path d="M145.56 166.924a8.618 8.618 0 1 0-.31-17.233 8.618 8.618 0 0 0 .31 17.233zM145.348 148.497c0 .062-.063.125-.126.125s-.126-.063-.126-.125v-.944c0-.063.063-.126.126-.126s.126.063.126.126v.944zM143.65 148.621c0 .063 0 .126-.126.126-.063 0-.125 0-.125-.126l-.189-.88c0-.063 0-.126.126-.126.063 0 .125 0 .125.126l.189.88zM142.014 149.062c0 .063 0 .126-.063.189-.063 0-.126 0-.189-.063l-.314-.881c0-.063 0-.126.063-.188.063 0 .125 0 .188.062l.315.881zM140.504 149.816c.063.063 0 .126-.063.189s-.126 0-.188-.063l-.504-.817c-.063-.063 0-.126.063-.189s.126 0 .189.063l.503.817zM139.121 150.761c.063.063.063.126 0 .189s-.126.063-.189 0l-.629-.692c-.063-.063-.063-.126 0-.189s.126-.063.189 0l.629.692zM137.925 151.956c.063.063.063.126 0 .189s-.125.063-.188 0l-.692-.566c-.063-.063-.063-.126 0-.189s.125-.063.188 0l.692.566z" fill="#EEC050"/><path d="M136.919 153.34c.063.063.063.125.063.188-.063.063-.126.063-.189.063l-.817-.44c-.063-.063-.063-.126-.063-.189.063-.063.126-.063.189-.063l.817.441zM136.227 154.913c.063 0 .126.125.063.188 0 .063-.126.126-.189.063l-.88-.314c-.063 0-.126-.126-.063-.189 0-.063.125-.126.188-.063l.881.315zM135.787 156.548c.062 0 .125.063.125.126s-.063.126-.125.126l-.944-.126a.135.135 0 0 1-.126-.126c0-.062.063-.125.126-.125l.944.125zM135.787 158.057c.062 0 .125.063.125.126s-.063.126-.125.126l-.944.062c-.063 0-.126-.062-.126-.125s.063-.126.126-.126l.944-.063zM146.794 148.56c0 .063.063.126.125.126a.135.135 0 0 0 .126-.126l.126-.944c0-.062-.063-.125-.126-.125s-.126.063-.126.125l-.125.944zM148.43 148.937c0 .063 0 .126.063.189.063 0 .126 0 .188-.063l.315-.881c0-.063 0-.126-.063-.188-.063 0-.126 0-.189.062l-.314.881zM150.002 149.629c-.063.063 0 .126.063.189s.126 0 .189-.063l.44-.818c.063-.063 0-.126-.063-.189s-.126 0-.189.063l-.44.818zM151.448 150.573c-.063.063-.063.126 0 .189s.126.063.189 0l.566-.692c.063-.063.063-.126 0-.189s-.126-.063-.189 0l-.566.692zM152.644 151.705c-.063.063-.063.126 0 .189s.126.063.188 0l.692-.629c.063-.063.063-.126 0-.189-.062-.063-.125-.063-.188 0l-.692.629zM153.714 153.026c-.063.063-.063.126-.063.189.063.063.126.063.189.063l.818-.504c.063-.062.063-.125.063-.188-.063-.063-.126-.063-.189-.063l-.818.503zM154.469 154.535c-.063 0-.126.126-.063.189 0 .063.126.126.188.063l.881-.315c.063 0 .126-.125.063-.188 0-.063-.126-.126-.189-.063l-.88.314zM154.972 156.171a.135.135 0 0 0-.126.126c0 .063.063.126.126.126l.881-.189c.062 0 .125-.063.125-.126 0-.062-.063-.125-.125-.125l-.881.188zM155.161 157.869a.135.135 0 0 0-.126.126c0 .063.063.126.126.126h.943a.135.135 0 0 0 .126-.126.135.135 0 0 0-.126-.126h-.943zM155.034 159.317c-.062 0-.125 0-.125.126 0 .063 0 .126.125.126l.881.188c.063 0 .126 0 .126-.125 0-.063 0-.126-.126-.126l-.881-.189zM146.037 168.125c0-.063.063-.126.126-.126s.126.063.126.126l.063.944a.135.135 0 0 1-.126.126.135.135 0 0 1-.126-.126l-.063-.944zM147.735 167.874c0-.063 0-.126.062-.126.063 0 .126 0 .126.063l.252.881c0 .063 0 .126-.063.126s-.126 0-.126-.063l-.251-.881zM149.307 167.307c0-.063 0-.126.063-.189.063 0 .126 0 .189.063l.377.818c0 .063 0 .126-.063.189-.063 0-.126 0-.189-.063l-.377-.818zM150.753 166.49c-.062-.063 0-.126 0-.188.063-.063.126 0 .189 0l.566.754c.063.063 0 .126 0 .189-.063.063-.125 0-.188 0l-.567-.755zM152.076 165.358c-.063-.063-.063-.126 0-.189.063-.062.126-.062.189 0l.692.63c.063.062.063.125 0 .188s-.126.063-.189 0l-.692-.629zM153.207 164.101c-.063-.063-.063-.126-.063-.189.063-.063.126-.063.189-.063l.755.503c.063.063.063.126.063.189-.063.063-.126.063-.189.063l-.755-.503zM154.025 162.654c-.063 0-.063-.126-.063-.189s.126-.063.189-.063l.818.377c.062 0 .062.126.062.189s-.125.063-.188.063l-.818-.377zM154.654 161.018c-.063 0-.126-.063-.063-.126 0-.063.063-.126.126-.063l.881.251c.063 0 .126.063.063.126 0 .063-.063.126-.126.063l-.881-.251zM144.59 168.188a.135.135 0 0 0-.126-.126c-.063 0-.125.063-.125.126l-.063.944c0 .062.063.125.125.125.063 0 .126-.063.126-.125l.063-.944zM142.892 167.936c0-.063 0-.126-.063-.126s-.126 0-.126.063l-.252.88c0 .063 0 .126.063.126s.126 0 .126-.063l.252-.88zM141.319 167.371c0-.063 0-.126-.063-.189-.063 0-.126 0-.189.063l-.378.818c0 .063 0 .126.063.189.063 0 .126 0 .189-.063l.378-.818zM139.809 166.614c.063-.063 0-.126-.063-.188-.063-.063-.126 0-.189.062l-.503.755c-.063.063 0 .126.063.189s.126 0 .189-.063l.503-.755zM138.488 165.546c.063-.063.063-.126 0-.189s-.126-.063-.188 0l-.63.692c-.062.063-.062.126 0 .189.063.063.126.063.189 0l.629-.692zM137.356 164.288c.063-.063.063-.126 0-.189s-.126-.063-.189 0l-.754.566c-.063.063-.063.126 0 .189.062.063.125.063.188 0l.755-.566zM136.476 162.84c.063 0 .063-.125.063-.188s-.126-.063-.189-.063l-.818.377c-.063 0-.063.126-.063.189s.126.063.189.063l.818-.378zM135.846 161.268c.063 0 .126-.063.063-.126 0-.063-.063-.126-.126-.063l-.881.252c-.063 0-.125.063-.063.126 0 .062.063.125.126.062l.881-.251zM135.532 159.569a.135.135 0 0 0 .126-.126.135.135 0 0 0-.126-.126l-.943.063a.135.135 0 0 0-.126.126c0 .063.063.126.126.126l.943-.063z" fill="#EEC050"/><path d="M129.555 95.469c.063-2.265-1.699-4.278-3.649-5.284-2.013-1.007-4.214-1.258-6.416-1.762-4.026-.88-6.039-1.132-6.982-1.195-3.02-.188-7.864-.503-8.744 1.573-.629 1.447 1.321 2.39 2.327 6.29.692 2.642.126 3.586.252 7.863.126 2.831.189 5.725 1.006 8.43.567 1.95 2.391 6.29 8.87 10.065M138.551 93.267c-1.007-2.516.44-5.472 2.453-7.297 2.013-1.76 4.592-2.767 6.857-4.151 3.459-2.14 3.9-2.642 5.913-3.397 2.453-.88 4.403-1.573 5.913-.692 2.202 1.195 1.573 4.403 2.894 12.895.817 5.41 1.509 6.983 1.761 9.185 0 .251.063 1.258.063 2.201 0 2.202-.441 6.354-3.271 11.826" fill="#E0B6A3"/><path d="M149.37 96.097c-8.367-4.78-17.111-1.572-18.306-1.132-7.36 2.83-10.757 8.681-11.7 10.316-2.642 4.655-2.894 8.996-3.02 11.386-.188 3.271-.818 14.909 7.989 22.269 6.354 5.284 13.776 5.221 15.286 5.158 5.41-.189 9.31-2.328 11.009-3.271 5.535-3.145 8.555-7.486 9.813-9.688.755-2.39 1.635-6.101 1.447-10.631-.063-2.956-.692-7.674-3.083-12.832-1.572-3.46-3.9-8.43-9.435-11.575z" fill="#F0D0C1"/><path d="M129.177 108.743c-.063-.189-.188-.252-.692-.503-.629-.315-.943-.441-1.132-.504-.818-.125-1.51.252-1.698.315-.755.44-1.07 1.132-1.196 1.384-.063.063-.251.44-.125.692 0 0 0 .063.062.063.189.063.441.063.692 0 .378-.126.504-.315.881-.567.189-.125.755-.44 1.384-.314.252.063.315.126.944.252.251.062.503.125.692 0 .251-.189.314-.567.188-.818zM149.434 105.535c-.315-.252-.63-.315-1.007-.378-.377-.063-1.258-.189-2.202.315-.755.44-1.132 1.132-1.321 1.446v.378c0 .063 0 .126.063.189 0 .063.063.188.126.251.063 0 .063.063.252.126.251.063.503 0 .629-.063s.251-.126.314-.251c.126-.126.252-.252.252-.315.189-.315.629-.629.881-.755.692-.314 1.383-.063 1.572 0 .755.252 1.007.755 1.132.629.189-.126 0-1.069-.691-1.572z" fill="#514943"/><path opacity="0.56" d="M155.725 119.811c.629 1.133-.818 2.831-3.208 3.9-2.391 1.07-4.844 1.007-5.473-.062-.629-1.133.818-2.831 3.208-3.901 2.328-1.132 4.781-1.069 5.473.063zM123.328 126.479c.189 1.006 2.516 1.573 5.158 1.321 2.642-.315 4.592-1.384 4.341-2.39-.189-1.007-2.516-1.573-5.158-1.321-2.58.314-4.53 1.321-4.341 2.39z" fill="#E8ACA5"/><path d="M129.682 119.56c-.755-.566-1.699-.629-2.517-.252-1.006.503-1.258 1.573-1.258 1.762 0 .125-.188 1.132.441 1.95.817 1.006 2.013.754 2.076.754.125 0 1.069.126 1.824-.629.818-.88.566-2.013.566-2.075-.189-1.007-1.007-1.447-1.132-1.51zM150.692 117.171c-.252-.252-.692-.692-1.384-.943-.252-.063-1.384-.441-2.265.251a2.067 2.067 0 0 0-.754 1.132s-.818 2.076 1.132 3.146c.126.063 1.321.503 2.327-.189 1.07-.629 1.51-2.076.944-3.397z" fill="#364043"/><path d="M130.248 120.566c-.126.503-.566.818-1.07.692-.503-.126-.754-.566-.692-1.069.126-.504.567-.818 1.07-.692.503.063.818.566.692 1.069zM150.314 117.61c-.126.503-.566.818-1.069.692-.504-.126-.755-.566-.692-1.069.126-.504.566-.818 1.069-.692.503.062.818.566.692 1.069z" fill="#fff"/><path d="M137.922 136.292c.126.378.44.818.881 1.195 2.013 1.636 6.29.504 7.045-1.698.189-.503.126-1.006.063-1.447a24.817 24.817 0 0 1-3.523 1.258 37.28 37.28 0 0 1-4.466.692z" fill="#514943"/><path d="M135.532 136.418c-1.007-.126-2.076-.252-3.082-1.007-1.321-.943-1.888-2.327-2.202-3.208-1.007-2.894-1.07-7.423 1.761-10.568 1.699-1.887 3.649-2.516 4.781-2.894 1.069-.377 3.649-1.132 6.605-.251 3.711 1.132 7.045 4.592 7.36 8.555.063.566.126 2.201-.692 3.963-1.069 2.076-2.831 3.019-4.089 3.648-1.258.629-2.956.881-6.353 1.51-1.51.315-2.642.44-4.089.252z" fill="#E0B6A3"/><path d="M144.087 123.902c-.063.126.943.315 1.572 1.321.504.818.315 1.447.818 1.698.378.189.944.063 1.07-.251.125-.315-.126-.692-.315-.944-1.006-1.509-3.082-1.95-3.145-1.824zM135.721 125.849c.063.063-.692.755-.755 1.888-.063.88.377 1.383.063 1.824-.252.377-.818.503-1.069.314-.252-.188-.189-.629-.189-.943.189-1.762 1.761-3.208 1.95-3.083z" fill="#514943"/></g><defs><filter id="filter0_d" x="0" y="0" width="291.214" height="298.757" filterUnits="userSpaceOnUse" color-interpolation-filters="sRGB"><feFlood flood-opacity="0" result="BackgroundImageFix"/><feColorMatrix in="SourceAlpha" values="0 0 0 0 0 0 0 0 0 0 0 0 0 0 0 0 0 0 127 0"/><feOffset dy="4"/><feGaussianBlur stdDeviation="25"/><feColorMatrix values="0 0 0 0 1 0 0 0 0 1 0 0 0 0 1 0 0 0 1 0"/><feBlend in2="BackgroundImageFix" result="effect1_dropShadow"/><feBlend in="SourceGraphic" in2="effect1_dropShadow" result="shape"/></filter></defs></svg>